HIERARCHY
ROOT Hips
{
 OFFSET 0.000000 0.000000 0.000000
 CHANNELS 6 Xposition Yposition Zposition Yrotation Xrotation Zrotation
 JOINT Chest
 {
  OFFSET 0.000000 9.303000 0.001900
  CHANNELS 3 Yrotation Xrotation Zrotation
  JOINT Chest2
  {
   OFFSET 0.000000 9.301100 -0.003900
   CHANNELS 3 Yrotation Xrotation Zrotation
   JOINT Chest3
   {
    OFFSET 0.000000 9.262800 0.000000
    CHANNELS 3 Yrotation Xrotation Zrotation
    JOINT Chest4
    {
     OFFSET 0.000000 9.253300 0.000000
     CHANNELS 3 Yrotation Xrotation Zrotation
     JOINT Neck
     {
      OFFSET 0.000000 14.010300 0.000000
      CHANNELS 3 Yrotation Xrotation Zrotation
      JOINT Head
      {
       OFFSET 0.000000 8.657600 -0.008300
       CHANNELS 3 Yrotation Xrotation Zrotation
       End Site
       {
        OFFSET 0.000000 16.540200 -0.004400
       }
      }
     }
     JOINT RightCollar
     {
      OFFSET -2.834100 9.267700 0.000000
      CHANNELS 3 Yrotation Xrotation Zrotation
      JOINT RightShoulder
      {
       OFFSET -13.135200 0.000000 0.000000
       CHANNELS 3 Yrotation Xrotation Zrotation
       JOINT RightElbow
       {
        OFFSET 0.000000 -28.893500 0.000000
        CHANNELS 3 Yrotation Xrotation Zrotation
        JOINT RightWrist
        {
         OFFSET 0.000000 -23.344000 0.000000
         CHANNELS 3 Yrotation Xrotation Zrotation
         End Site
         {
          OFFSET 0.000000 -17.223000 0.000000
         }
        }
       }
      }
     }
     JOINT LeftCollar
     {
      OFFSET 2.834100 9.267700 0.000000
      CHANNELS 3 Yrotation Xrotation Zrotation
      JOINT LeftShoulder
      {
       OFFSET 13.135200 0.000000 0.000000
       CHANNELS 3 Yrotation Xrotation Zrotation
       JOINT LeftElbow
       {
        OFFSET 0.000000 -28.893500 0.000000
        CHANNELS 3 Yrotation Xrotation Zrotation
        JOINT LeftWrist
        {
         OFFSET 0.000000 -23.344000 0.000000
         CHANNELS 3 Yrotation Xrotation Zrotation
         End Site
         {
          OFFSET 0.000000 -17.223000 0.000000
         }
        }
       }
      }
     }
    }
   }
  }
 }
 JOINT RightHip
 {
  OFFSET -7.547200 -0.009500 -0.001000
  CHANNELS 3 Yrotation Xrotation Zrotation
  JOINT RightKnee
  {
   OFFSET 0.000000 -39.762800 0.000900
   CHANNELS 3 Yrotation Xrotation Zrotation
   JOINT RightAnkle
   {
    OFFSET 0.000000 -38.588200 0.001600
    CHANNELS 3 Yrotation Xrotation Zrotation
    JOINT RightToe
    {
     OFFSET 0.000000 -4.693300 10.419700
     CHANNELS 3 Yrotation Xrotation Zrotation
     End Site
     {
      OFFSET 0.000000 -1.379900 5.669300
     }
    }
   }
  }
 }
 JOINT LeftHip
 {
  OFFSET 7.547200 -0.009500 -0.001000
  CHANNELS 3 Yrotation Xrotation Zrotation
  JOINT LeftKnee
  {
   OFFSET 0.000000 -39.762800 0.000900
   CHANNELS 3 Yrotation Xrotation Zrotation
   JOINT LeftAnkle
   {
    OFFSET 0.000000 -38.588200 0.001600
    CHANNELS 3 Yrotation Xrotation Zrotation
    JOINT LeftToe
    {
     OFFSET 0.000000 -4.693300 10.419700
     CHANNELS 3 Yrotation Xrotation Zrotation
     End Site
     {
      OFFSET 0.000000 -1.379900 5.669300
     }
    }
   }
  }
 }
}
MOTION
Frames: 11
Frame Time: 0.008333
0.000000 82.880600 0.000000 0.000000 -5.767877 0.000000 0.000000 11.653817 0.000000 0.000000 -5.885947 0.000000 0.000000 -0.000000 0.000000 0.000000 -0.000000 0.000000 0.000000 12.528835 0.000000 0.000000 0.711642 0.000000 0.000000 -0.000000 0.000000 0.000000 0.000000 -90.000000 0.000000 -2.309062 0.000000 0.000000 2.309062 0.000000 0.000000 -0.000000 0.000000 0.000000 -0.000000 90.000000 0.000000 -2.309062 0.000000 0.000000 2.309062 0.000000 0.000000 8.520406 0.000000 0.000000 1.905762 0.000000 -0.000000 -4.658285 0.000000 0.000000 -0.000000 0.000000 0.000000 8.520406 0.000000 0.000000 1.905762 0.000000 -0.000000 -4.658285 0.000000 0.000000 -0.000000 0.000000
4.920455 45.025365 4.282324 165.388700 -12.802292 -0.870334 2.877012 8.868969 1.466856 0.151011 0.504038 0.055106 0.269719 0.869140 0.097588 2.659624 8.288920 1.107923 -1.688212 21.884639 -0.724120 -1.647051 -2.355583 -0.391246 2.276926 6.365573 -5.165554 -4.439778 -8.285092 -4.428989 -133.785921 -80.083272 155.065095 -8.971448 -8.145456 -22.405325 -9.027733 4.174545 -4.366855 17.872302 -8.717523 8.718444 68.166832 -61.285035 -101.215872 10.958507 -4.601091 18.496478 -17.900956 -75.240780 14.737702 -102.914598 82.858570 -105.606836 -10.460178 -7.897719 0.712304 -0.072857 0.267655 -0.048410 -5.123088 -71.423344 26.897183 162.594423 69.538475 159.084358 -11.259395 -25.535542 5.185111 -0.053239 -0.278496 -0.024374
4.920109 45.025564 4.281636 165.388762 -12.802468 -0.864601 2.872423 8.871992 1.459768 0.149752 0.506171 0.055309 0.269783 0.869807 0.097561 2.663551 8.284387 1.107506 -1.692455 21.892491 -0.745700 -1.643122 -2.348926 -0.412570 2.275249 6.366031 -5.164490 -4.433707 -8.284345 -4.424199 -133.717503 -80.106648 154.973894 -8.973937 -8.163506 -22.401206 -9.031891 4.176874 -4.357663 17.876312 -8.715610 8.713399 68.178558 -61.292582 -101.237932 10.957822 -4.608076 18.504973 -17.858843 -75.242264 14.698634 -102.903281 82.859216 -105.589337 -10.505286 -7.902203 0.718027 -0.060326 0.272999 -0.050016 -5.104904 -71.420700 26.881110 162.591084 69.541595 159.080383 -11.274207 -25.536378 5.188282 -0.044337 -0.275537 -0.022115
4.922145 45.025812 4.281537 165.370463 -12.802192 -0.870237 2.885494 8.875386 1.468256 0.150672 0.507127 0.055356 0.269668 0.870492 0.097694 2.662970 8.289085 1.107081 -1.691854 21.896574 -0.765382 -1.638278 -2.343957 -0.433762 2.284825 6.359579 -5.167034 -4.431300 -8.287849 -4.412286 -133.645457 -80.136132 154.873299 -8.987367 -8.151314 -22.433593 -9.026584 4.168999 -4.352044 17.877088 -8.715527 8.709007 68.216662 -61.302591 -101.298060 10.968078 -4.591452 18.514999 -17.835138 -75.242070 14.692362 -102.910728 82.867978 -105.593944 -10.465168 -7.897642 0.718277 -0.106457 0.270087 -0.047065 -5.120719 -71.418714 26.918869 162.595795 69.535264 159.085798 -11.280827 -25.543619 5.187856 -0.045793 -0.273901 -0.021174
4.923599 45.026029 4.281318 165.366751 -12.800513 -0.876191 2.880700 8.881610 1.473494 0.153091 0.503055 0.056104 0.269255 0.870984 0.097855 2.665010 8.295247 1.107494 -1.694189 21.901855 -0.786631 -1.635805 -2.337778 -0.456289 2.285261 6.353957 -5.168981 -4.421811 -8.293433 -4.407359 -133.371609 -80.174722 154.555271 -8.965197 -8.189430 -22.389621 -9.031013 4.161644 -4.352236 17.889370 -8.717624 8.706224 68.238647 -61.302620 -101.336986 10.971263 -4.574212 18.518188 -17.776333 -75.245437 14.652369 -102.905542 82.867387 -105.575125 -10.485782 -7.894638 0.723274 -0.086006 0.269924 -0.042028 -5.145546 -71.417726 26.949954 162.605115 69.535216 159.092034 -11.281752 -25.547879 5.188445 -0.048385 -0.270233 -0.021345
4.921596 45.026526 4.278684 165.365325 -12.807055 -0.859383 2.868933 8.892645 1.457229 0.154759 0.502354 0.055958 0.268748 0.871312 0.098047 2.660443 8.298633 1.106302 -1.695184 21.910140 -0.810027 -1.640768 -2.301452 -0.521486 2.300563 6.357272 -5.171161 -4.415888 -8.302060 -4.400206 -133.326557 -80.189994 154.491866 -8.970816 -8.182750 -22.410691 -9.019539 4.155553 -4.354737 17.892743 -8.716753 8.717049 68.264398 -61.291304 -101.384546 10.968445 -4.557056 18.518989 -17.687382 -75.245207 14.571881 -102.884902 82.862141 -105.548995 -10.551681 -7.896123 0.732768 -0.104426 0.273105 -0.046713 -5.099105 -71.404413 26.899711 162.598179 69.535163 159.077743 -11.282096 -25.556625 5.191204 -0.049403 -0.265405 -0.022701
4.923645 45.026731 4.278641 165.350919 -12.803775 -0.869226 2.874549 8.891780 1.469777 0.160202 0.500499 0.055703 0.265558 0.871858 0.098642 2.654105 8.302950 1.109436 -1.697502 21.919221 -0.835639 -1.639030 -2.288168 -0.548196 2.317166 6.356636 -5.175028 -4.402001 -8.304553 -4.386306 -133.329282 -80.212504 154.469888 -9.004830 -8.139129 -22.473843 -9.010979 4.153412 -4.357208 17.906050 -8.719437 8.716454 68.270345 -61.286166 -101.410432 10.957762 -4.544382 18.502283 -17.705329 -75.245476 14.606873 -102.907765 82.867563 -105.577601 -10.488405 -7.894163 0.728795 -0.077822 0.271359 -0.037062 -5.127118 -71.401907 26.941515 162.603264 69.533523 159.080026 -11.268485 -25.572460 5.189384 -0.063426 -0.256526 -0.025825
4.923776 45.026750 4.278704 165.350090 -12.796013 -0.872256 2.864902 8.888280 1.470862 0.165296 0.497271 0.056638 0.268264 0.871382 0.098226 2.633238 8.306838 1.111632 -1.691972 21.929342 -0.861163 -1.635524 -2.273794 -0.573905 2.342388 6.355161 -5.178820 -4.389073 -8.288522 -4.347053 -133.194641 -80.273852 154.284701 -8.987702 -8.163000 -22.463594 -8.991707 4.152957 -4.360932 17.919369 -8.722508 8.718246 68.272085 -61.282012 -101.434719 10.941216 -4.533120 18.477836 -17.653171 -75.256468 14.571404 -102.919797 82.857149 -105.589728 -10.431713 -7.860115 0.723411 -0.023014 0.239314 -0.015377 -5.141627 -71.406557 26.954870 162.608516 69.533148 159.084077 -11.282204 -25.611184 5.196413 -0.051937 -0.220146 -0.026500
4.922791 45.026966 4.277304 165.344939 -12.795108 -0.866802 2.859882 8.891032 1.464063 0.163017 0.499530 0.057137 0.267701 0.871041 0.098024 2.637321 8.304269 1.110760 -1.713103 21.957791 -0.904714 -1.617440 -2.283365 -0.568865 2.352693 6.354393 -5.176389 -4.388203 -8.277249 -4.332792 -133.214402 -80.287820 154.289028 -8.989183 -8.151374 -22.481146 -8.988155 4.157058 -4.359449 17.934921 -8.728620 8.719593 68.304496 -61.293470 -101.525715 10.936195 -4.518844 18.486587 -17.603477 -75.259706 14.539126 -102.874223 82.848191 -105.541569 -10.485127 -7.858582 0.733617 0.086434 0.242923 -0.010811 -5.127447 -71.404861 26.940508 162.595213 69.531515 159.071956 -11.282407 -25.615270 5.192989 -0.047881 -0.219307 -0.025907
4.921820 45.027219 4.275490 165.337198 -12.796583 -0.861357 2.860231 8.894411 1.459052 0.160340 0.501572 0.056102 0.267721 0.871352 0.097569 2.628620 8.308928 1.105111 -1.702616 21.963878 -0.918968 -1.611716 -2.290581 -0.561961 2.372977 6.360986 -5.158508 -4.391020 -8.283529 -4.335923 -133.187462 -80.297272 154.247877 -8.983348 -8.156047 -22.472979 -8.982263 4.156410 -4.349092 17.960986 -8.733378 8.716308 68.341575 -61.302471 -101.606240 10.926920 -4.506930 18.475734 -17.558449 -75.259474 14.518762 -102.810992 82.837777 -105.480793 -10.576383 -7.888453 0.762776 -0.050041 0.277599 -0.031024 -5.114317 -71.401177 26.929966 162.575491 69.529216 159.050371 -11.269304 -25.585767 5.190064 -0.059766 -0.252312 -0.029995
4.919043 45.027514 4.272555 165.343047 -12.801568 -0.847111 2.847862 8.902639 1.444180 0.157234 0.499904 0.053687 0.267616 0.871700 0.097472 2.629882 8.312662 1.105779 -1.702101 21.970064 -0.932462 -1.610144 -2.274956 -0.585884 2.377537 6.361016 -5.156829 -4.390716 -8.285514 -4.335585 -133.015225 -80.318849 154.053869 -8.977745 -8.153768 -22.488532 -8.982793 4.163262 -4.339193 17.982530 -8.737760 8.709024 68.379075 -61.313606 -101.681444 10.918711 -4.502725 18.457907 -17.495348 -75.259025 14.462409 -102.810393 82.835718 -105.493021 -10.639710 -7.889912 0.787196 -0.109282 0.280472 -0.040809 -5.078749 -71.395586 26.882667 162.574366 69.527198 159.046100 -11.270566 -25.582927 5.191415 -0.059082 -0.257684 -0.029640
